<mxfile host="app.diagrams.net" modified="2021-12-14T12:24:03.589Z" agent="5.0 (Windows NT 10.0; Win64; x64) AppleWebKit/537.36 (KHTML, like Gecko) Chrome/96.0.4664.93 Safari/537.36" etag="DikApKWhOBacAhjtUn9o" version="15.9.4" type="github">
  <diagram id="L5sY7Q-6gvqycTJfWh3B" name="第 1 页">
    <mxGraphModel dx="4697" dy="1067" grid="1" gridSize="10" guides="1" tooltips="1" connect="1" arrows="1" fold="1" page="1" pageScale="1" pageWidth="827" pageHeight="1169" math="0" shadow="0">
      <root>
        <mxCell id="0" />
        <mxCell id="1" parent="0" />
        <mxCell id="x7FfRpxNMGuR6Kh4KBlE-134" value="" style="rounded=0;whiteSpace=wrap;html=1;fontSize=17;" parent="1" vertex="1">
          <mxGeometry x="-1250" y="860" width="1770" height="2100" as="geometry" />
        </mxCell>
        <mxCell id="x7FfRpxNMGuR6Kh4KBlE-221" value="" style="rounded=0;whiteSpace=wrap;html=1;fontSize=18;" parent="1" vertex="1">
          <mxGeometry x="-1220" y="1420" width="1690" height="1510" as="geometry" />
        </mxCell>
        <mxCell id="x7FfRpxNMGuR6Kh4KBlE-219" style="edgeStyle=orthogonalEdgeStyle;rounded=0;orthogonalLoop=1;jettySize=auto;html=1;exitX=1;exitY=0.5;exitDx=0;exitDy=0;fontSize=18;entryX=1;entryY=0.5;entryDx=0;entryDy=0;" parent="1" source="x7FfRpxNMGuR6Kh4KBlE-218" target="x7FfRpxNMGuR6Kh4KBlE-187" edge="1">
          <mxGeometry relative="1" as="geometry">
            <mxPoint x="-160" y="1930" as="targetPoint" />
          </mxGeometry>
        </mxCell>
        <mxCell id="x7FfRpxNMGuR6Kh4KBlE-218" value="" style="rounded=0;whiteSpace=wrap;html=1;fontSize=18;" parent="1" vertex="1">
          <mxGeometry x="-160" y="2500" width="530" height="310" as="geometry" />
        </mxCell>
        <mxCell id="x7FfRpxNMGuR6Kh4KBlE-220" style="edgeStyle=orthogonalEdgeStyle;rounded=0;orthogonalLoop=1;jettySize=auto;html=1;exitX=0;exitY=0.5;exitDx=0;exitDy=0;entryX=0;entryY=0.5;entryDx=0;entryDy=0;fontSize=18;" parent="1" source="x7FfRpxNMGuR6Kh4KBlE-217" target="x7FfRpxNMGuR6Kh4KBlE-187" edge="1">
          <mxGeometry relative="1" as="geometry" />
        </mxCell>
        <mxCell id="x7FfRpxNMGuR6Kh4KBlE-217" value="" style="rounded=0;whiteSpace=wrap;html=1;fontSize=18;" parent="1" vertex="1">
          <mxGeometry x="-1120" y="2510" width="660" height="310" as="geometry" />
        </mxCell>
        <mxCell id="x7FfRpxNMGuR6Kh4KBlE-132" value="" style="group" parent="1" vertex="1" connectable="0">
          <mxGeometry x="-2330" y="1760" width="1200" height="1240" as="geometry" />
        </mxCell>
        <mxCell id="x7FfRpxNMGuR6Kh4KBlE-33" value="" style="rounded=0;whiteSpace=wrap;html=1;" parent="x7FfRpxNMGuR6Kh4KBlE-132" vertex="1">
          <mxGeometry x="40" width="1160" height="1240" as="geometry" />
        </mxCell>
        <mxCell id="x7FfRpxNMGuR6Kh4KBlE-131" value="" style="group" parent="x7FfRpxNMGuR6Kh4KBlE-132" vertex="1" connectable="0">
          <mxGeometry y="90" width="1170" height="1120" as="geometry" />
        </mxCell>
        <mxCell id="x7FfRpxNMGuR6Kh4KBlE-37" value="&lt;span&gt;判断是否晚点&lt;/span&gt;" style="rounded=0;whiteSpace=wrap;html=1;fontSize=12;" parent="x7FfRpxNMGuR6Kh4KBlE-131" vertex="1">
          <mxGeometry x="363.27" y="-30" width="87" height="40" as="geometry" />
        </mxCell>
        <mxCell id="x7FfRpxNMGuR6Kh4KBlE-38" value="&lt;span&gt;获取最后一条线路&lt;/span&gt;" style="whiteSpace=wrap;html=1;rounded=0;" parent="x7FfRpxNMGuR6Kh4KBlE-131" vertex="1">
          <mxGeometry x="349.15" y="50" width="115.25" height="30" as="geometry" />
        </mxCell>
        <mxCell id="x7FfRpxNMGuR6Kh4KBlE-39" value="" style="edgeStyle=orthogonalEdgeStyle;rounded=0;orthogonalLoop=1;jettySize=auto;html=1;fontSize=12;" parent="x7FfRpxNMGuR6Kh4KBlE-131" source="x7FfRpxNMGuR6Kh4KBlE-37" target="x7FfRpxNMGuR6Kh4KBlE-38" edge="1">
          <mxGeometry relative="1" as="geometry" />
        </mxCell>
        <mxCell id="x7FfRpxNMGuR6Kh4KBlE-40" value="&lt;span style=&quot;font-weight: normal&quot;&gt;判断是否影响频次&lt;br&gt;（（batchInfo）规划频次 != 实际频次 就认为影响了频次）&lt;/span&gt;" style="whiteSpace=wrap;html=1;rounded=0;fontStyle=1" parent="x7FfRpxNMGuR6Kh4KBlE-131" vertex="1">
          <mxGeometry x="244.75" y="120" width="325.52" height="40" as="geometry" />
        </mxCell>
        <mxCell id="x7FfRpxNMGuR6Kh4KBlE-41" value="" style="edgeStyle=orthogonalEdgeStyle;rounded=0;orthogonalLoop=1;jettySize=auto;html=1;fontSize=12;" parent="x7FfRpxNMGuR6Kh4KBlE-131" source="x7FfRpxNMGuR6Kh4KBlE-38" target="x7FfRpxNMGuR6Kh4KBlE-40" edge="1">
          <mxGeometry relative="1" as="geometry" />
        </mxCell>
        <mxCell id="x7FfRpxNMGuR6Kh4KBlE-44" value="" style="whiteSpace=wrap;html=1;rounded=0;fontStyle=1;" parent="x7FfRpxNMGuR6Kh4KBlE-131" vertex="1">
          <mxGeometry x="202.51" y="200" width="410" height="430" as="geometry" />
        </mxCell>
        <mxCell id="x7FfRpxNMGuR6Kh4KBlE-45" value="" style="edgeStyle=orthogonalEdgeStyle;rounded=0;orthogonalLoop=1;jettySize=auto;html=1;fontSize=12;entryX=0.5;entryY=0;entryDx=0;entryDy=0;" parent="x7FfRpxNMGuR6Kh4KBlE-131" source="x7FfRpxNMGuR6Kh4KBlE-40" target="x7FfRpxNMGuR6Kh4KBlE-44" edge="1">
          <mxGeometry relative="1" as="geometry" />
        </mxCell>
        <mxCell id="x7FfRpxNMGuR6Kh4KBlE-46" value="判断规定到达时间" style="text;html=1;strokeColor=none;fillColor=none;align=center;verticalAlign=middle;whiteSpace=wrap;rounded=0;fontSize=13;fontStyle=3" parent="x7FfRpxNMGuR6Kh4KBlE-131" vertex="1">
          <mxGeometry x="354.13" y="200" width="114.76" height="20" as="geometry" />
        </mxCell>
        <mxCell id="x7FfRpxNMGuR6Kh4KBlE-47" value="当天最后派次 = 三派时间 == null ?&amp;nbsp;&lt;br&gt;&amp;nbsp;(二派时间 == null ？ 一派时间 : 二派时间) : 三派时间&amp;nbsp;" style="rounded=0;whiteSpace=wrap;html=1;fontSize=13;" parent="x7FfRpxNMGuR6Kh4KBlE-131" vertex="1">
          <mxGeometry x="244.75" y="235" width="320" height="50" as="geometry" />
        </mxCell>
        <mxCell id="x7FfRpxNMGuR6Kh4KBlE-50" value="" style="edgeStyle=orthogonalEdgeStyle;rounded=0;orthogonalLoop=1;jettySize=auto;html=1;fontSize=13;" parent="x7FfRpxNMGuR6Kh4KBlE-131" source="x7FfRpxNMGuR6Kh4KBlE-47" target="x7FfRpxNMGuR6Kh4KBlE-49" edge="1">
          <mxGeometry relative="1" as="geometry">
            <mxPoint x="364.0899999999998" y="305" as="sourcePoint" />
          </mxGeometry>
        </mxCell>
        <mxCell id="x7FfRpxNMGuR6Kh4KBlE-49" value="null?" style="rhombus;whiteSpace=wrap;html=1;fontSize=13;" parent="x7FfRpxNMGuR6Kh4KBlE-131" vertex="1">
          <mxGeometry x="302.13" y="340" width="124" height="50" as="geometry" />
        </mxCell>
        <mxCell id="x7FfRpxNMGuR6Kh4KBlE-53" value="true" style="whiteSpace=wrap;html=1;fontSize=13;" parent="x7FfRpxNMGuR6Kh4KBlE-131" vertex="1">
          <mxGeometry x="486.13" y="342.5" width="80" height="45" as="geometry" />
        </mxCell>
        <mxCell id="x7FfRpxNMGuR6Kh4KBlE-54" value="Y" style="edgeStyle=orthogonalEdgeStyle;rounded=0;orthogonalLoop=1;jettySize=auto;html=1;fontSize=13;" parent="x7FfRpxNMGuR6Kh4KBlE-131" source="x7FfRpxNMGuR6Kh4KBlE-49" target="x7FfRpxNMGuR6Kh4KBlE-53" edge="1">
          <mxGeometry relative="1" as="geometry" />
        </mxCell>
        <mxCell id="x7FfRpxNMGuR6Kh4KBlE-55" value="当天最后派次时间&lt;br&gt;&amp;gt;23:00" style="rhombus;whiteSpace=wrap;html=1;fontSize=13;" parent="x7FfRpxNMGuR6Kh4KBlE-131" vertex="1">
          <mxGeometry x="280.13" y="450" width="170" height="60" as="geometry" />
        </mxCell>
        <mxCell id="x7FfRpxNMGuR6Kh4KBlE-58" value="N" style="edgeStyle=orthogonalEdgeStyle;rounded=0;orthogonalLoop=1;jettySize=auto;html=1;exitX=0.5;exitY=1;exitDx=0;exitDy=0;entryX=0.5;entryY=0;entryDx=0;entryDy=0;fontSize=13;" parent="x7FfRpxNMGuR6Kh4KBlE-131" source="x7FfRpxNMGuR6Kh4KBlE-49" target="x7FfRpxNMGuR6Kh4KBlE-55" edge="1">
          <mxGeometry relative="1" as="geometry" />
        </mxCell>
        <mxCell id="x7FfRpxNMGuR6Kh4KBlE-60" value="true" style="whiteSpace=wrap;html=1;fontSize=13;" parent="x7FfRpxNMGuR6Kh4KBlE-131" vertex="1">
          <mxGeometry x="500.13" y="457.5" width="86" height="45" as="geometry" />
        </mxCell>
        <mxCell id="x7FfRpxNMGuR6Kh4KBlE-59" value="N" style="edgeStyle=orthogonalEdgeStyle;rounded=0;orthogonalLoop=1;jettySize=auto;html=1;exitX=1;exitY=0.5;exitDx=0;exitDy=0;fontSize=13;" parent="x7FfRpxNMGuR6Kh4KBlE-131" source="x7FfRpxNMGuR6Kh4KBlE-55" target="x7FfRpxNMGuR6Kh4KBlE-60" edge="1">
          <mxGeometry relative="1" as="geometry">
            <mxPoint x="546.13" y="455" as="targetPoint" />
          </mxGeometry>
        </mxCell>
        <mxCell id="x7FfRpxNMGuR6Kh4KBlE-63" value="规定到达时间&lt;br&gt;1.规定到达时间&amp;gt;当天最后派次时间&lt;br&gt;&amp;amp;&amp;amp;&lt;br&gt;规定到达时间 &amp;lt;=23:00" style="rounded=0;whiteSpace=wrap;html=1;fontSize=13;" parent="x7FfRpxNMGuR6Kh4KBlE-131" vertex="1">
          <mxGeometry x="244.13" y="545" width="242" height="70" as="geometry" />
        </mxCell>
        <mxCell id="x7FfRpxNMGuR6Kh4KBlE-61" value="N" style="edgeStyle=orthogonalEdgeStyle;rounded=0;orthogonalLoop=1;jettySize=auto;html=1;exitX=0.5;exitY=1;exitDx=0;exitDy=0;fontSize=13;entryX=0.5;entryY=0;entryDx=0;entryDy=0;" parent="x7FfRpxNMGuR6Kh4KBlE-131" source="x7FfRpxNMGuR6Kh4KBlE-55" target="x7FfRpxNMGuR6Kh4KBlE-63" edge="1">
          <mxGeometry relative="1" as="geometry">
            <mxPoint x="364.13" y="555" as="targetPoint" />
          </mxGeometry>
        </mxCell>
        <mxCell id="x7FfRpxNMGuR6Kh4KBlE-68" value="true?" style="rhombus;whiteSpace=wrap;html=1;fontSize=13;" parent="x7FfRpxNMGuR6Kh4KBlE-131" vertex="1">
          <mxGeometry x="617.51" y="715" width="103.5" height="30" as="geometry" />
        </mxCell>
        <mxCell id="x7FfRpxNMGuR6Kh4KBlE-67" style="edgeStyle=orthogonalEdgeStyle;rounded=0;orthogonalLoop=1;jettySize=auto;html=1;exitX=0.5;exitY=1;exitDx=0;exitDy=0;fontSize=13;entryX=0.5;entryY=0;entryDx=0;entryDy=0;" parent="x7FfRpxNMGuR6Kh4KBlE-131" source="x7FfRpxNMGuR6Kh4KBlE-44" target="x7FfRpxNMGuR6Kh4KBlE-68" edge="1">
          <mxGeometry relative="1" as="geometry">
            <mxPoint x="674" y="710" as="targetPoint" />
          </mxGeometry>
        </mxCell>
        <mxCell id="x7FfRpxNMGuR6Kh4KBlE-111" value="" style="group" parent="x7FfRpxNMGuR6Kh4KBlE-131" vertex="1" connectable="0">
          <mxGeometry x="640" y="820" width="530" height="300" as="geometry" />
        </mxCell>
        <mxCell id="x7FfRpxNMGuR6Kh4KBlE-74" value="晚点时长&amp;lt;60min？" style="rhombus;whiteSpace=wrap;html=1;fontSize=13;" parent="x7FfRpxNMGuR6Kh4KBlE-111" vertex="1">
          <mxGeometry x="103.94" width="130" height="70" as="geometry" />
        </mxCell>
        <mxCell id="x7FfRpxNMGuR6Kh4KBlE-75" value="不做罚款" style="whiteSpace=wrap;html=1;fontSize=13;" parent="x7FfRpxNMGuR6Kh4KBlE-111" vertex="1">
          <mxGeometry x="325.94" y="17.5" width="65" height="35" as="geometry" />
        </mxCell>
        <mxCell id="x7FfRpxNMGuR6Kh4KBlE-76" value="Y" style="edgeStyle=orthogonalEdgeStyle;rounded=0;orthogonalLoop=1;jettySize=auto;html=1;fontSize=13;" parent="x7FfRpxNMGuR6Kh4KBlE-111" source="x7FfRpxNMGuR6Kh4KBlE-74" target="x7FfRpxNMGuR6Kh4KBlE-75" edge="1">
          <mxGeometry relative="1" as="geometry" />
        </mxCell>
        <mxCell id="x7FfRpxNMGuR6Kh4KBlE-78" value="影响频次？" style="rhombus;whiteSpace=wrap;html=1;fontSize=13;" parent="x7FfRpxNMGuR6Kh4KBlE-111" vertex="1">
          <mxGeometry x="103.94" y="120" width="130" height="70" as="geometry" />
        </mxCell>
        <mxCell id="x7FfRpxNMGuR6Kh4KBlE-77" value="N" style="edgeStyle=orthogonalEdgeStyle;rounded=0;orthogonalLoop=1;jettySize=auto;html=1;exitX=0.5;exitY=1;exitDx=0;exitDy=0;fontSize=13;entryX=0.5;entryY=0;entryDx=0;entryDy=0;" parent="x7FfRpxNMGuR6Kh4KBlE-111" source="x7FfRpxNMGuR6Kh4KBlE-74" target="x7FfRpxNMGuR6Kh4KBlE-78" edge="1">
          <mxGeometry relative="1" as="geometry">
            <mxPoint x="168.94" y="130" as="targetPoint" />
          </mxGeometry>
        </mxCell>
        <mxCell id="x7FfRpxNMGuR6Kh4KBlE-79" value="罚款金额 = 5 * (晚点罚款时长-60)&lt;br&gt;上限 2000" style="whiteSpace=wrap;html=1;fontSize=13;" parent="x7FfRpxNMGuR6Kh4KBlE-111" vertex="1">
          <mxGeometry x="318.94" y="130" width="211.06" height="50" as="geometry" />
        </mxCell>
        <mxCell id="x7FfRpxNMGuR6Kh4KBlE-80" value="N" style="edgeStyle=orthogonalEdgeStyle;rounded=0;orthogonalLoop=1;jettySize=auto;html=1;fontSize=13;" parent="x7FfRpxNMGuR6Kh4KBlE-111" source="x7FfRpxNMGuR6Kh4KBlE-78" target="x7FfRpxNMGuR6Kh4KBlE-79" edge="1">
          <mxGeometry relative="1" as="geometry" />
        </mxCell>
        <mxCell id="x7FfRpxNMGuR6Kh4KBlE-110" value="=1次，罚款金额 = 5 * (晚点罚款时长-60) + 500 ,上限 2500&lt;br&gt;&amp;gt;1次，罚款金额 = 5 * (晚点罚款时长-60) + 1000 ,上限 3000" style="rounded=0;whiteSpace=wrap;html=1;fontSize=13;" parent="x7FfRpxNMGuR6Kh4KBlE-111" vertex="1">
          <mxGeometry x="-21.06" y="250" width="380" height="50" as="geometry" />
        </mxCell>
        <mxCell id="x7FfRpxNMGuR6Kh4KBlE-109" value="Y" style="edgeStyle=orthogonalEdgeStyle;rounded=0;orthogonalLoop=1;jettySize=auto;html=1;exitX=0.5;exitY=1;exitDx=0;exitDy=0;fontSize=13;entryX=0.5;entryY=0;entryDx=0;entryDy=0;" parent="x7FfRpxNMGuR6Kh4KBlE-111" source="x7FfRpxNMGuR6Kh4KBlE-78" target="x7FfRpxNMGuR6Kh4KBlE-110" edge="1">
          <mxGeometry relative="1" as="geometry">
            <mxPoint x="168.94" y="250" as="targetPoint" />
          </mxGeometry>
        </mxCell>
        <mxCell id="x7FfRpxNMGuR6Kh4KBlE-69" value="Y" style="edgeStyle=orthogonalEdgeStyle;rounded=0;orthogonalLoop=1;jettySize=auto;html=1;exitX=0.5;exitY=1;exitDx=0;exitDy=0;fontSize=13;entryX=0.5;entryY=0;entryDx=0;entryDy=0;" parent="x7FfRpxNMGuR6Kh4KBlE-131" source="x7FfRpxNMGuR6Kh4KBlE-68" target="x7FfRpxNMGuR6Kh4KBlE-74" edge="1">
          <mxGeometry relative="1" as="geometry">
            <mxPoint x="674" y="810" as="targetPoint" />
          </mxGeometry>
        </mxCell>
        <mxCell id="x7FfRpxNMGuR6Kh4KBlE-117" value="影响频次？" style="rhombus;whiteSpace=wrap;html=1;fontSize=13;" parent="x7FfRpxNMGuR6Kh4KBlE-131" vertex="1">
          <mxGeometry x="370" y="695" width="130" height="70" as="geometry" />
        </mxCell>
        <mxCell id="x7FfRpxNMGuR6Kh4KBlE-112" style="edgeStyle=orthogonalEdgeStyle;rounded=0;orthogonalLoop=1;jettySize=auto;html=1;exitX=0;exitY=0.5;exitDx=0;exitDy=0;fontSize=13;entryX=1;entryY=0.5;entryDx=0;entryDy=0;" parent="x7FfRpxNMGuR6Kh4KBlE-131" source="x7FfRpxNMGuR6Kh4KBlE-68" target="x7FfRpxNMGuR6Kh4KBlE-117" edge="1">
          <mxGeometry relative="1" as="geometry">
            <mxPoint x="465" y="730" as="targetPoint" />
          </mxGeometry>
        </mxCell>
        <mxCell id="x7FfRpxNMGuR6Kh4KBlE-113" value="N" style="edgeLabel;html=1;align=center;verticalAlign=middle;resizable=0;points=[];fontSize=13;" parent="x7FfRpxNMGuR6Kh4KBlE-112" vertex="1" connectable="0">
          <mxGeometry x="-0.1747" y="4" relative="1" as="geometry">
            <mxPoint x="-6" y="-4" as="offset" />
          </mxGeometry>
        </mxCell>
        <mxCell id="x7FfRpxNMGuR6Kh4KBlE-122" value="罚款金额 = 5 * 晚点罚款时长 + 500&lt;br&gt;（上限 2500）" style="rounded=0;whiteSpace=wrap;html=1;fontSize=13;" parent="x7FfRpxNMGuR6Kh4KBlE-131" vertex="1">
          <mxGeometry x="460.01" y="890" width="259.99" height="30" as="geometry" />
        </mxCell>
        <mxCell id="x7FfRpxNMGuR6Kh4KBlE-121" value="Y" style="edgeStyle=orthogonalEdgeStyle;rounded=0;orthogonalLoop=1;jettySize=auto;html=1;exitX=1;exitY=0.5;exitDx=0;exitDy=0;fontSize=13;entryX=0;entryY=0.5;entryDx=0;entryDy=0;" parent="x7FfRpxNMGuR6Kh4KBlE-131" source="x7FfRpxNMGuR6Kh4KBlE-118" target="x7FfRpxNMGuR6Kh4KBlE-122" edge="1">
          <mxGeometry relative="1" as="geometry">
            <mxPoint x="430" y="844.9473684210529" as="targetPoint" />
          </mxGeometry>
        </mxCell>
        <mxCell id="x7FfRpxNMGuR6Kh4KBlE-118" value="频次 == 1" style="rhombus;whiteSpace=wrap;html=1;fontSize=13;" parent="x7FfRpxNMGuR6Kh4KBlE-131" vertex="1">
          <mxGeometry x="280" y="820" width="110" height="50" as="geometry" />
        </mxCell>
        <mxCell id="x7FfRpxNMGuR6Kh4KBlE-119" value="Y" style="edgeStyle=orthogonalEdgeStyle;rounded=0;orthogonalLoop=1;jettySize=auto;html=1;exitX=0.5;exitY=1;exitDx=0;exitDy=0;fontSize=13;" parent="x7FfRpxNMGuR6Kh4KBlE-131" source="x7FfRpxNMGuR6Kh4KBlE-117" target="x7FfRpxNMGuR6Kh4KBlE-118" edge="1">
          <mxGeometry relative="1" as="geometry" />
        </mxCell>
        <mxCell id="x7FfRpxNMGuR6Kh4KBlE-124" value="罚款金额 = 5 * 晚点罚款时长 + 1000&lt;br&gt;（上限 3000）" style="rounded=0;whiteSpace=wrap;html=1;fontSize=13;" parent="x7FfRpxNMGuR6Kh4KBlE-131" vertex="1">
          <mxGeometry x="202.51" y="950" width="267.49" height="30" as="geometry" />
        </mxCell>
        <mxCell id="x7FfRpxNMGuR6Kh4KBlE-123" value="N" style="edgeStyle=orthogonalEdgeStyle;rounded=0;orthogonalLoop=1;jettySize=auto;html=1;exitX=0.5;exitY=1;exitDx=0;exitDy=0;fontSize=13;entryX=0.5;entryY=0;entryDx=0;entryDy=0;" parent="x7FfRpxNMGuR6Kh4KBlE-131" source="x7FfRpxNMGuR6Kh4KBlE-118" target="x7FfRpxNMGuR6Kh4KBlE-124" edge="1">
          <mxGeometry relative="1" as="geometry">
            <mxPoint x="335.31578947368416" y="940" as="targetPoint" />
          </mxGeometry>
        </mxCell>
        <mxCell id="x7FfRpxNMGuR6Kh4KBlE-127" value="罚款金额 = 2 * 晚点罚款时长,上限 2000" style="rounded=0;whiteSpace=wrap;html=1;fontSize=13;" parent="x7FfRpxNMGuR6Kh4KBlE-131" vertex="1">
          <mxGeometry x="60" y="640" width="267.49" height="30" as="geometry" />
        </mxCell>
        <mxCell id="x7FfRpxNMGuR6Kh4KBlE-126" value="N" style="edgeStyle=orthogonalEdgeStyle;rounded=0;orthogonalLoop=1;jettySize=auto;html=1;exitX=0;exitY=0.5;exitDx=0;exitDy=0;fontSize=13;entryX=1;entryY=0.5;entryDx=0;entryDy=0;" parent="x7FfRpxNMGuR6Kh4KBlE-131" source="x7FfRpxNMGuR6Kh4KBlE-117" target="x7FfRpxNMGuR6Kh4KBlE-127" edge="1">
          <mxGeometry relative="1" as="geometry">
            <mxPoint x="280" y="730.2105263157896" as="targetPoint" />
          </mxGeometry>
        </mxCell>
        <mxCell id="x7FfRpxNMGuR6Kh4KBlE-114" value="" style="group" parent="x7FfRpxNMGuR6Kh4KBlE-131" vertex="1" connectable="0">
          <mxGeometry x="730" y="-20" width="400" height="650" as="geometry" />
        </mxCell>
        <mxCell id="x7FfRpxNMGuR6Kh4KBlE-106" value="" style="group" parent="x7FfRpxNMGuR6Kh4KBlE-114" vertex="1" connectable="0">
          <mxGeometry width="400" height="650" as="geometry" />
        </mxCell>
        <mxCell id="x7FfRpxNMGuR6Kh4KBlE-105" value="" style="rounded=0;whiteSpace=wrap;html=1;fontSize=13;" parent="x7FfRpxNMGuR6Kh4KBlE-106" vertex="1">
          <mxGeometry width="400" height="650" as="geometry" />
        </mxCell>
        <mxCell id="x7FfRpxNMGuR6Kh4KBlE-83" value="频次数量计算" style="text;html=1;strokeColor=none;fillColor=none;align=center;verticalAlign=middle;whiteSpace=wrap;rounded=0;fontSize=13;fontStyle=3" parent="x7FfRpxNMGuR6Kh4KBlE-106" vertex="1">
          <mxGeometry x="136.8421052631579" width="105.26315789473684" height="20" as="geometry" />
        </mxCell>
        <mxCell id="x7FfRpxNMGuR6Kh4KBlE-84" value="规定到达频次 =&amp;nbsp; 规定到达时间 + 1个小时" style="rounded=0;whiteSpace=wrap;html=1;fontSize=13;" parent="x7FfRpxNMGuR6Kh4KBlE-114" vertex="1">
          <mxGeometry x="55" y="40" width="260" height="30" as="geometry" />
        </mxCell>
        <mxCell id="x7FfRpxNMGuR6Kh4KBlE-85" value="实际到达频次 =&amp;nbsp;实际到达时间 + 1小时" style="rounded=0;whiteSpace=wrap;html=1;fontSize=13;" parent="x7FfRpxNMGuR6Kh4KBlE-114" vertex="1">
          <mxGeometry x="55" y="110" width="260" height="30" as="geometry" />
        </mxCell>
        <mxCell id="x7FfRpxNMGuR6Kh4KBlE-90" style="edgeStyle=orthogonalEdgeStyle;rounded=0;orthogonalLoop=1;jettySize=auto;html=1;exitX=0.5;exitY=1;exitDx=0;exitDy=0;entryX=0.5;entryY=0;entryDx=0;entryDy=0;fontSize=13;" parent="x7FfRpxNMGuR6Kh4KBlE-114" source="x7FfRpxNMGuR6Kh4KBlE-84" target="x7FfRpxNMGuR6Kh4KBlE-85" edge="1">
          <mxGeometry relative="1" as="geometry" />
        </mxCell>
        <mxCell id="x7FfRpxNMGuR6Kh4KBlE-86" value="3次派件时间!=null" style="rhombus;whiteSpace=wrap;html=1;fontSize=13;" parent="x7FfRpxNMGuR6Kh4KBlE-114" vertex="1">
          <mxGeometry x="95" y="180" width="180" height="60" as="geometry" />
        </mxCell>
        <mxCell id="x7FfRpxNMGuR6Kh4KBlE-91" style="edgeStyle=orthogonalEdgeStyle;rounded=0;orthogonalLoop=1;jettySize=auto;html=1;exitX=0.5;exitY=1;exitDx=0;exitDy=0;entryX=0.5;entryY=0;entryDx=0;entryDy=0;fontSize=13;" parent="x7FfRpxNMGuR6Kh4KBlE-114" source="x7FfRpxNMGuR6Kh4KBlE-85" target="x7FfRpxNMGuR6Kh4KBlE-86" edge="1">
          <mxGeometry relative="1" as="geometry" />
        </mxCell>
        <mxCell id="x7FfRpxNMGuR6Kh4KBlE-88" value="终止" style="rounded=0;whiteSpace=wrap;html=1;fontSize=13;" parent="x7FfRpxNMGuR6Kh4KBlE-114" vertex="1">
          <mxGeometry x="322.5" y="190" width="70" height="40" as="geometry" />
        </mxCell>
        <mxCell id="x7FfRpxNMGuR6Kh4KBlE-87" style="edgeStyle=orthogonalEdgeStyle;rounded=0;orthogonalLoop=1;jettySize=auto;html=1;exitX=1;exitY=0.5;exitDx=0;exitDy=0;fontSize=13;entryX=0;entryY=0.5;entryDx=0;entryDy=0;" parent="x7FfRpxNMGuR6Kh4KBlE-114" source="x7FfRpxNMGuR6Kh4KBlE-86" target="x7FfRpxNMGuR6Kh4KBlE-88" edge="1">
          <mxGeometry relative="1" as="geometry">
            <mxPoint x="355" y="200" as="targetPoint" />
          </mxGeometry>
        </mxCell>
        <mxCell id="x7FfRpxNMGuR6Kh4KBlE-89" value="当天N派时间 = 规定到达时间 + N派时间" style="rounded=0;whiteSpace=wrap;html=1;fontSize=13;" parent="x7FfRpxNMGuR6Kh4KBlE-114" vertex="1">
          <mxGeometry x="40" y="270" width="290" height="30" as="geometry" />
        </mxCell>
        <mxCell id="x7FfRpxNMGuR6Kh4KBlE-92" style="edgeStyle=orthogonalEdgeStyle;rounded=0;orthogonalLoop=1;jettySize=auto;html=1;exitX=0.5;exitY=1;exitDx=0;exitDy=0;fontSize=13;" parent="x7FfRpxNMGuR6Kh4KBlE-114" source="x7FfRpxNMGuR6Kh4KBlE-86" target="x7FfRpxNMGuR6Kh4KBlE-89" edge="1">
          <mxGeometry relative="1" as="geometry" />
        </mxCell>
        <mxCell id="x7FfRpxNMGuR6Kh4KBlE-94" value="&amp;nbsp;规定到达频次 &amp;lt; 当天N派时间&amp;nbsp; &amp;amp;&amp;amp;&lt;br&gt;当天N派时间 &amp;lt; 实际到达频次" style="rhombus;whiteSpace=wrap;html=1;fontSize=13;" parent="x7FfRpxNMGuR6Kh4KBlE-114" vertex="1">
          <mxGeometry x="30" y="330" width="300" height="60" as="geometry" />
        </mxCell>
        <mxCell id="x7FfRpxNMGuR6Kh4KBlE-93" style="edgeStyle=orthogonalEdgeStyle;rounded=0;orthogonalLoop=1;jettySize=auto;html=1;exitX=0.5;exitY=1;exitDx=0;exitDy=0;fontSize=13;entryX=0.5;entryY=0;entryDx=0;entryDy=0;" parent="x7FfRpxNMGuR6Kh4KBlE-114" source="x7FfRpxNMGuR6Kh4KBlE-89" target="x7FfRpxNMGuR6Kh4KBlE-94" edge="1">
          <mxGeometry relative="1" as="geometry">
            <mxPoint x="185" y="330" as="targetPoint" />
          </mxGeometry>
        </mxCell>
        <mxCell id="x7FfRpxNMGuR6Kh4KBlE-98" value="频次+1" style="rounded=0;whiteSpace=wrap;html=1;fontSize=13;" parent="x7FfRpxNMGuR6Kh4KBlE-114" vertex="1">
          <mxGeometry x="145" y="430" width="70" height="40" as="geometry" />
        </mxCell>
        <mxCell id="x7FfRpxNMGuR6Kh4KBlE-97" value="Y" style="edgeStyle=orthogonalEdgeStyle;rounded=0;orthogonalLoop=1;jettySize=auto;html=1;exitX=0.5;exitY=1;exitDx=0;exitDy=0;fontSize=13;entryX=0.5;entryY=0;entryDx=0;entryDy=0;" parent="x7FfRpxNMGuR6Kh4KBlE-114" source="x7FfRpxNMGuR6Kh4KBlE-94" target="x7FfRpxNMGuR6Kh4KBlE-98" edge="1">
          <mxGeometry relative="1" as="geometry">
            <mxPoint x="180" y="420" as="targetPoint" />
          </mxGeometry>
        </mxCell>
        <mxCell id="x7FfRpxNMGuR6Kh4KBlE-100" value="&amp;nbsp;规定到达频次 &amp;lt; 第二天N派时间&amp;nbsp; &amp;amp;&amp;amp;&lt;br&gt;第二天N派时间&amp;nbsp;&amp;lt; 实际到达频次" style="rhombus;whiteSpace=wrap;html=1;fontSize=13;" parent="x7FfRpxNMGuR6Kh4KBlE-114" vertex="1">
          <mxGeometry x="30" y="490" width="300" height="60" as="geometry" />
        </mxCell>
        <mxCell id="x7FfRpxNMGuR6Kh4KBlE-102" style="edgeStyle=orthogonalEdgeStyle;rounded=0;orthogonalLoop=1;jettySize=auto;html=1;exitX=0.5;exitY=1;exitDx=0;exitDy=0;entryX=0.5;entryY=0;entryDx=0;entryDy=0;fontSize=13;" parent="x7FfRpxNMGuR6Kh4KBlE-114" source="x7FfRpxNMGuR6Kh4KBlE-98" target="x7FfRpxNMGuR6Kh4KBlE-100" edge="1">
          <mxGeometry relative="1" as="geometry" />
        </mxCell>
        <mxCell id="x7FfRpxNMGuR6Kh4KBlE-103" value="频次+1" style="rounded=0;whiteSpace=wrap;html=1;fontSize=13;" parent="x7FfRpxNMGuR6Kh4KBlE-114" vertex="1">
          <mxGeometry x="145" y="590" width="70" height="40" as="geometry" />
        </mxCell>
        <mxCell id="x7FfRpxNMGuR6Kh4KBlE-104" value="Y" style="edgeStyle=orthogonalEdgeStyle;rounded=0;orthogonalLoop=1;jettySize=auto;html=1;exitX=0.5;exitY=1;exitDx=0;exitDy=0;fontSize=13;" parent="x7FfRpxNMGuR6Kh4KBlE-114" source="x7FfRpxNMGuR6Kh4KBlE-100" target="x7FfRpxNMGuR6Kh4KBlE-103" edge="1">
          <mxGeometry relative="1" as="geometry" />
        </mxCell>
        <mxCell id="x7FfRpxNMGuR6Kh4KBlE-226" value="2" style="ellipse;shape=doubleEllipse;whiteSpace=wrap;html=1;aspect=fixed;fontSize=51;fontStyle=3" parent="x7FfRpxNMGuR6Kh4KBlE-132" vertex="1">
          <mxGeometry x="1120" width="80" height="80" as="geometry" />
        </mxCell>
        <mxCell id="x7FfRpxNMGuR6Kh4KBlE-35" value="&lt;span style=&quot;font-style: italic; font-weight: 700; font-size: 17px;&quot;&gt;支干线不考核，罚款置为0&lt;/span&gt;" style="text;html=1;strokeColor=none;fillColor=none;align=center;verticalAlign=middle;whiteSpace=wrap;rounded=0;fontSize=17;" parent="x7FfRpxNMGuR6Kh4KBlE-132" vertex="1">
          <mxGeometry x="40" y="60" width="220" height="20" as="geometry" />
        </mxCell>
        <mxCell id="x7FfRpxNMGuR6Kh4KBlE-34" value="&lt;font style=&quot;font-size: 29px;&quot;&gt;物流车罚款计算新逻辑，2021-09-07启用&lt;/font&gt;" style="text;html=1;strokeColor=none;fillColor=none;align=center;verticalAlign=middle;whiteSpace=wrap;rounded=0;fontSize=29;fontStyle=3" parent="x7FfRpxNMGuR6Kh4KBlE-132" vertex="1">
          <mxGeometry x="10" y="-1" width="600" height="50" as="geometry" />
        </mxCell>
        <mxCell id="x7FfRpxNMGuR6Kh4KBlE-133" value="物流车老逻辑(其余车类延用)" style="text;html=1;strokeColor=none;fillColor=none;align=center;verticalAlign=middle;whiteSpace=wrap;rounded=0;fontSize=30;fontStyle=3" parent="1" vertex="1">
          <mxGeometry x="-1270" y="870" width="500" height="60" as="geometry" />
        </mxCell>
        <mxCell id="x7FfRpxNMGuR6Kh4KBlE-223" style="edgeStyle=orthogonalEdgeStyle;rounded=0;orthogonalLoop=1;jettySize=auto;html=1;exitX=0.5;exitY=1;exitDx=0;exitDy=0;entryX=0.5;entryY=0;entryDx=0;entryDy=0;fontSize=29;" parent="1" source="x7FfRpxNMGuR6Kh4KBlE-165" target="x7FfRpxNMGuR6Kh4KBlE-166" edge="1">
          <mxGeometry relative="1" as="geometry" />
        </mxCell>
        <mxCell id="x7FfRpxNMGuR6Kh4KBlE-165" value="物流车支干线不考核，罚款置为0" style="rounded=0;whiteSpace=wrap;html=1;fontSize=20;" parent="1" vertex="1">
          <mxGeometry x="-543.26" y="890" width="324" height="45" as="geometry" />
        </mxCell>
        <mxCell id="x7FfRpxNMGuR6Kh4KBlE-167" value="Y" style="edgeStyle=orthogonalEdgeStyle;rounded=0;orthogonalLoop=1;jettySize=auto;html=1;exitX=1;exitY=0.5;exitDx=0;exitDy=0;fontSize=20;entryX=0;entryY=0.5;entryDx=0;entryDy=0;" parent="1" source="x7FfRpxNMGuR6Kh4KBlE-166" target="x7FfRpxNMGuR6Kh4KBlE-168" edge="1">
          <mxGeometry relative="1" as="geometry">
            <mxPoint x="-207" y="1049.666666666667" as="targetPoint" />
          </mxGeometry>
        </mxCell>
        <mxCell id="x7FfRpxNMGuR6Kh4KBlE-170" value="N" style="edgeStyle=orthogonalEdgeStyle;rounded=0;orthogonalLoop=1;jettySize=auto;html=1;exitX=0.5;exitY=1;exitDx=0;exitDy=0;fontSize=20;entryX=0.5;entryY=0;entryDx=0;entryDy=0;" parent="1" source="x7FfRpxNMGuR6Kh4KBlE-166" target="x7FfRpxNMGuR6Kh4KBlE-171" edge="1">
          <mxGeometry relative="1" as="geometry">
            <mxPoint x="-373.1428571428569" y="1210" as="targetPoint" />
          </mxGeometry>
        </mxCell>
        <mxCell id="x7FfRpxNMGuR6Kh4KBlE-166" value="晚点罚款时长 &amp;lt;= 9分钟" style="rhombus;whiteSpace=wrap;html=1;fontSize=20;" parent="1" vertex="1">
          <mxGeometry x="-480" y="1000" width="213" height="100" as="geometry" />
        </mxCell>
        <mxCell id="x7FfRpxNMGuR6Kh4KBlE-168" value="晚点罚款金额设置为0" style="rounded=0;whiteSpace=wrap;html=1;fontSize=20;" parent="1" vertex="1">
          <mxGeometry x="-185.5" y="1009" width="168" height="82" as="geometry" />
        </mxCell>
        <mxCell id="x7FfRpxNMGuR6Kh4KBlE-172" style="edgeStyle=orthogonalEdgeStyle;rounded=0;orthogonalLoop=1;jettySize=auto;html=1;exitX=0.5;exitY=1;exitDx=0;exitDy=0;fontSize=20;entryX=0.5;entryY=0;entryDx=0;entryDy=0;" parent="1" source="x7FfRpxNMGuR6Kh4KBlE-171" target="x7FfRpxNMGuR6Kh4KBlE-173" edge="1">
          <mxGeometry relative="1" as="geometry">
            <mxPoint x="-374.57142857142844" y="1290" as="targetPoint" />
          </mxGeometry>
        </mxCell>
        <mxCell id="x7FfRpxNMGuR6Kh4KBlE-171" value="过滤掉距离为空的路段" style="rounded=0;whiteSpace=wrap;html=1;fontSize=20;" parent="1" vertex="1">
          <mxGeometry x="-445" y="1170" width="140.5" height="70" as="geometry" />
        </mxCell>
        <mxCell id="x7FfRpxNMGuR6Kh4KBlE-175" style="edgeStyle=orthogonalEdgeStyle;rounded=0;orthogonalLoop=1;jettySize=auto;html=1;exitX=0.5;exitY=1;exitDx=0;exitDy=0;fontSize=20;" parent="1" source="x7FfRpxNMGuR6Kh4KBlE-173" target="x7FfRpxNMGuR6Kh4KBlE-221" edge="1">
          <mxGeometry relative="1" as="geometry">
            <mxPoint x="-327.125" y="1300" as="targetPoint" />
          </mxGeometry>
        </mxCell>
        <mxCell id="x7FfRpxNMGuR6Kh4KBlE-173" value="分段线路不为空" style="rhombus;whiteSpace=wrap;html=1;fontSize=20;" parent="1" vertex="1">
          <mxGeometry x="-481.25" y="1305" width="214.25" height="65" as="geometry" />
        </mxCell>
        <mxCell id="x7FfRpxNMGuR6Kh4KBlE-178" style="edgeStyle=orthogonalEdgeStyle;rounded=0;orthogonalLoop=1;jettySize=auto;html=1;exitX=0.5;exitY=1;exitDx=0;exitDy=0;fontSize=20;entryX=0.5;entryY=0;entryDx=0;entryDy=0;" parent="1" source="x7FfRpxNMGuR6Kh4KBlE-176" target="x7FfRpxNMGuR6Kh4KBlE-179" edge="1">
          <mxGeometry relative="1" as="geometry">
            <mxPoint x="-322" y="1575" as="targetPoint" />
          </mxGeometry>
        </mxCell>
        <mxCell id="x7FfRpxNMGuR6Kh4KBlE-176" value="承运单状态 = 3&lt;br&gt;零担车" style="rounded=0;whiteSpace=wrap;html=1;fontSize=20;" parent="1" vertex="1">
          <mxGeometry x="-407.12" y="1470" width="170" height="50" as="geometry" />
        </mxCell>
        <mxCell id="x7FfRpxNMGuR6Kh4KBlE-180" value="Y" style="edgeStyle=orthogonalEdgeStyle;rounded=0;orthogonalLoop=1;jettySize=auto;html=1;exitX=1;exitY=0.5;exitDx=0;exitDy=0;fontSize=18;entryX=0;entryY=0.5;entryDx=0;entryDy=0;" parent="1" source="x7FfRpxNMGuR6Kh4KBlE-179" target="x7FfRpxNMGuR6Kh4KBlE-181" edge="1">
          <mxGeometry relative="1" as="geometry">
            <mxPoint x="-220" y="1615.3333333333335" as="targetPoint" />
          </mxGeometry>
        </mxCell>
        <mxCell id="x7FfRpxNMGuR6Kh4KBlE-183" value="N" style="edgeStyle=orthogonalEdgeStyle;rounded=0;orthogonalLoop=1;jettySize=auto;html=1;exitX=0.5;exitY=1;exitDx=0;exitDy=0;fontSize=18;" parent="1" source="x7FfRpxNMGuR6Kh4KBlE-179" target="x7FfRpxNMGuR6Kh4KBlE-182" edge="1">
          <mxGeometry relative="1" as="geometry" />
        </mxCell>
        <mxCell id="x7FfRpxNMGuR6Kh4KBlE-179" value="影响频次？&lt;br&gt;(默认不影响)" style="rhombus;whiteSpace=wrap;html=1;fontSize=20;" parent="1" vertex="1">
          <mxGeometry x="-422.5" y="1560" width="202.5" height="120" as="geometry" />
        </mxCell>
        <mxCell id="x7FfRpxNMGuR6Kh4KBlE-181" value="打标" style="rounded=0;whiteSpace=wrap;html=1;fontSize=18;" parent="1" vertex="1">
          <mxGeometry x="-157" y="1590" width="120" height="60" as="geometry" />
        </mxCell>
        <mxCell id="x7FfRpxNMGuR6Kh4KBlE-184" style="edgeStyle=orthogonalEdgeStyle;rounded=0;orthogonalLoop=1;jettySize=auto;html=1;exitX=0.5;exitY=1;exitDx=0;exitDy=0;fontSize=18;entryX=0.5;entryY=0;entryDx=0;entryDy=0;" parent="1" source="x7FfRpxNMGuR6Kh4KBlE-182" target="x7FfRpxNMGuR6Kh4KBlE-185" edge="1">
          <mxGeometry relative="1" as="geometry">
            <mxPoint x="-322.16666666666606" y="1850" as="targetPoint" />
          </mxGeometry>
        </mxCell>
        <mxCell id="x7FfRpxNMGuR6Kh4KBlE-182" value="匹配罚款规则" style="rounded=0;whiteSpace=wrap;html=1;fontSize=18;" parent="1" vertex="1">
          <mxGeometry x="-382.12" y="1750" width="120" height="60" as="geometry" />
        </mxCell>
        <mxCell id="x7FfRpxNMGuR6Kh4KBlE-188" style="edgeStyle=orthogonalEdgeStyle;rounded=0;orthogonalLoop=1;jettySize=auto;html=1;exitX=0.5;exitY=1;exitDx=0;exitDy=0;fontSize=18;" parent="1" source="x7FfRpxNMGuR6Kh4KBlE-185" target="x7FfRpxNMGuR6Kh4KBlE-187" edge="1">
          <mxGeometry relative="1" as="geometry" />
        </mxCell>
        <mxCell id="x7FfRpxNMGuR6Kh4KBlE-185" value="空字段剔除&lt;br&gt;（空车）" style="rounded=0;whiteSpace=wrap;html=1;fontSize=18;" parent="1" vertex="1">
          <mxGeometry x="-381.25" y="1860" width="120" height="60" as="geometry" />
        </mxCell>
        <mxCell id="x7FfRpxNMGuR6Kh4KBlE-191" style="edgeStyle=orthogonalEdgeStyle;rounded=0;orthogonalLoop=1;jettySize=auto;html=1;exitX=0.5;exitY=1;exitDx=0;exitDy=0;entryX=0.5;entryY=0;entryDx=0;entryDy=0;fontSize=18;" parent="1" source="x7FfRpxNMGuR6Kh4KBlE-187" target="x7FfRpxNMGuR6Kh4KBlE-190" edge="1">
          <mxGeometry relative="1" as="geometry" />
        </mxCell>
        <mxCell id="x7FfRpxNMGuR6Kh4KBlE-187" value="组装车辆类型和线路类型" style="rounded=0;whiteSpace=wrap;html=1;fontSize=18;" parent="1" vertex="1">
          <mxGeometry x="-382.12" y="1980" width="120" height="60" as="geometry" />
        </mxCell>
        <mxCell id="x7FfRpxNMGuR6Kh4KBlE-192" style="edgeStyle=orthogonalEdgeStyle;rounded=0;orthogonalLoop=1;jettySize=auto;html=1;exitX=0.5;exitY=1;exitDx=0;exitDy=0;fontSize=18;entryX=0.5;entryY=0;entryDx=0;entryDy=0;" parent="1" source="x7FfRpxNMGuR6Kh4KBlE-190" target="x7FfRpxNMGuR6Kh4KBlE-193" edge="1">
          <mxGeometry relative="1" as="geometry">
            <mxPoint x="-320.5" y="2180" as="targetPoint" />
          </mxGeometry>
        </mxCell>
        <mxCell id="x7FfRpxNMGuR6Kh4KBlE-190" value="包含作业类型？" style="rhombus;whiteSpace=wrap;html=1;fontSize=18;" parent="1" vertex="1">
          <mxGeometry x="-414.25" y="2080" width="186.75" height="50" as="geometry" />
        </mxCell>
        <mxCell id="x7FfRpxNMGuR6Kh4KBlE-196" style="edgeStyle=orthogonalEdgeStyle;rounded=0;orthogonalLoop=1;jettySize=auto;html=1;exitX=0.5;exitY=1;exitDx=0;exitDy=0;fontSize=18;" parent="1" source="x7FfRpxNMGuR6Kh4KBlE-193" target="x7FfRpxNMGuR6Kh4KBlE-195" edge="1">
          <mxGeometry relative="1" as="geometry" />
        </mxCell>
        <mxCell id="x7FfRpxNMGuR6Kh4KBlE-193" value="线路类型包含全部&lt;br&gt;or&lt;br&gt;线路类型包含当前线路" style="rhombus;whiteSpace=wrap;html=1;fontSize=18;" parent="1" vertex="1">
          <mxGeometry x="-488.38" y="2180" width="334.25" height="130" as="geometry" />
        </mxCell>
        <mxCell id="x7FfRpxNMGuR6Kh4KBlE-198" style="edgeStyle=orthogonalEdgeStyle;rounded=0;orthogonalLoop=1;jettySize=auto;html=1;exitX=0.5;exitY=1;exitDx=0;exitDy=0;fontSize=18;" parent="1" source="x7FfRpxNMGuR6Kh4KBlE-195" target="x7FfRpxNMGuR6Kh4KBlE-197" edge="1">
          <mxGeometry relative="1" as="geometry" />
        </mxCell>
        <mxCell id="x7FfRpxNMGuR6Kh4KBlE-195" value="零担车？" style="rhombus;whiteSpace=wrap;html=1;fontSize=18;" parent="1" vertex="1">
          <mxGeometry x="-470.26" y="2350" width="298" height="50" as="geometry" />
        </mxCell>
        <mxCell id="x7FfRpxNMGuR6Kh4KBlE-199" style="edgeStyle=orthogonalEdgeStyle;rounded=0;orthogonalLoop=1;jettySize=auto;html=1;exitX=0.5;exitY=1;exitDx=0;exitDy=0;fontSize=18;entryX=0.5;entryY=0;entryDx=0;entryDy=0;" parent="1" source="x7FfRpxNMGuR6Kh4KBlE-197" target="x7FfRpxNMGuR6Kh4KBlE-200" edge="1">
          <mxGeometry relative="1" as="geometry">
            <mxPoint x="-321.33333333333303" y="2539.9999999999995" as="targetPoint" />
          </mxGeometry>
        </mxCell>
        <mxCell id="x7FfRpxNMGuR6Kh4KBlE-197" value="1.&lt;span&gt;是否在0-二派之间&lt;/span&gt;&lt;div&gt;2.是否影响频次&lt;/div&gt;" style="rounded=0;whiteSpace=wrap;html=1;fontSize=18;align=left;" parent="1" vertex="1">
          <mxGeometry x="-416.69" y="2440" width="190.87" height="70" as="geometry" />
        </mxCell>
        <mxCell id="x7FfRpxNMGuR6Kh4KBlE-205" value="Y" style="edgeStyle=orthogonalEdgeStyle;rounded=0;orthogonalLoop=1;jettySize=auto;html=1;exitX=0;exitY=0.5;exitDx=0;exitDy=0;entryX=1;entryY=0.5;entryDx=0;entryDy=0;fontSize=18;" parent="1" target="x7FfRpxNMGuR6Kh4KBlE-204" edge="1">
          <mxGeometry relative="1" as="geometry">
            <mxPoint x="-355.1199999999999" y="2600" as="sourcePoint" />
          </mxGeometry>
        </mxCell>
        <mxCell id="x7FfRpxNMGuR6Kh4KBlE-210" value="N" style="edgeStyle=orthogonalEdgeStyle;rounded=0;orthogonalLoop=1;jettySize=auto;html=1;exitX=1;exitY=0.5;exitDx=0;exitDy=0;fontSize=18;entryX=0;entryY=0.5;entryDx=0;entryDy=0;" parent="1" source="x7FfRpxNMGuR6Kh4KBlE-200" target="x7FfRpxNMGuR6Kh4KBlE-211" edge="1">
          <mxGeometry relative="1" as="geometry">
            <mxPoint x="-120" y="2599.714285714286" as="targetPoint" />
          </mxGeometry>
        </mxCell>
        <mxCell id="x7FfRpxNMGuR6Kh4KBlE-200" value="&lt;span style=&quot;text-align: left&quot;&gt;是否是一口价&lt;/span&gt;" style="rhombus;whiteSpace=wrap;html=1;fontSize=18;" parent="1" vertex="1">
          <mxGeometry x="-395.12" y="2560" width="146" height="80" as="geometry" />
        </mxCell>
        <mxCell id="x7FfRpxNMGuR6Kh4KBlE-208" value="N" style="edgeStyle=orthogonalEdgeStyle;rounded=0;orthogonalLoop=1;jettySize=auto;html=1;exitX=0;exitY=0.5;exitDx=0;exitDy=0;fontSize=18;entryX=1;entryY=0.5;entryDx=0;entryDy=0;" parent="1" source="x7FfRpxNMGuR6Kh4KBlE-204" target="x7FfRpxNMGuR6Kh4KBlE-209" edge="1">
          <mxGeometry relative="1" as="geometry">
            <mxPoint x="-930" y="2588.2857142857147" as="targetPoint" />
          </mxGeometry>
        </mxCell>
        <mxCell id="x7FfRpxNMGuR6Kh4KBlE-212" value="Y" style="edgeStyle=orthogonalEdgeStyle;rounded=0;orthogonalLoop=1;jettySize=auto;html=1;exitX=0.5;exitY=1;exitDx=0;exitDy=0;fontSize=18;" parent="1" source="x7FfRpxNMGuR6Kh4KBlE-204" target="x7FfRpxNMGuR6Kh4KBlE-207" edge="1">
          <mxGeometry relative="1" as="geometry" />
        </mxCell>
        <mxCell id="x7FfRpxNMGuR6Kh4KBlE-204" value="&lt;span style=&quot;background-color: rgb(43 , 43 , 43)&quot;&gt;&lt;div&gt;1.里程下限(km) &amp;lt;= 历程总和and&lt;/div&gt;&lt;div&gt;2.里程上限(km) &amp;gt;= 历程总和and&lt;/div&gt;&lt;div&gt;3.时长下限(min)&amp;lt;= 晚点罚款时长and&lt;/div&gt;&lt;div&gt;4.时长上限(min) &amp;gt;= 晚点罚款时长&lt;/div&gt;&lt;/span&gt;" style="rounded=0;whiteSpace=wrap;html=1;fontSize=18;" parent="1" vertex="1">
          <mxGeometry x="-800" y="2551.5" width="300" height="97" as="geometry" />
        </mxCell>
        <mxCell id="x7FfRpxNMGuR6Kh4KBlE-207" value="罚款金额 = 晚点罚款时长 *&amp;nbsp; 单价（单位：元/分钟） &amp;gt; 罚款上限（单位：元）&lt;br&gt;? 罚款上限（单位：元）: 晚点罚款时长 *&amp;nbsp; 单价（单位：元/分钟）" style="rounded=0;whiteSpace=wrap;html=1;fontSize=18;" parent="1" vertex="1">
          <mxGeometry x="-1100" y="2730" width="625" height="60" as="geometry" />
        </mxCell>
        <mxCell id="x7FfRpxNMGuR6Kh4KBlE-209" value="continue" style="rounded=0;whiteSpace=wrap;html=1;fontSize=18;" parent="1" vertex="1">
          <mxGeometry x="-980" y="2575" width="85" height="50" as="geometry" />
        </mxCell>
        <mxCell id="x7FfRpxNMGuR6Kh4KBlE-213" value="Y" style="edgeStyle=orthogonalEdgeStyle;rounded=0;orthogonalLoop=1;jettySize=auto;html=1;exitX=0.5;exitY=1;exitDx=0;exitDy=0;fontSize=18;entryX=0.5;entryY=0;entryDx=0;entryDy=0;" parent="1" source="x7FfRpxNMGuR6Kh4KBlE-211" target="x7FfRpxNMGuR6Kh4KBlE-215" edge="1">
          <mxGeometry relative="1" as="geometry">
            <mxPoint x="11" y="2730" as="targetPoint" />
          </mxGeometry>
        </mxCell>
        <mxCell id="x7FfRpxNMGuR6Kh4KBlE-214" value="N" style="edgeStyle=orthogonalEdgeStyle;rounded=0;orthogonalLoop=1;jettySize=auto;html=1;exitX=1;exitY=0.5;exitDx=0;exitDy=0;fontSize=18;entryX=0;entryY=0.5;entryDx=0;entryDy=0;" parent="1" source="x7FfRpxNMGuR6Kh4KBlE-211" target="x7FfRpxNMGuR6Kh4KBlE-216" edge="1">
          <mxGeometry relative="1" as="geometry">
            <mxPoint x="270" y="2599.714285714286" as="targetPoint" />
          </mxGeometry>
        </mxCell>
        <mxCell id="x7FfRpxNMGuR6Kh4KBlE-211" value="&lt;span style=&quot;background-color: rgb(43 , 43 , 43)&quot;&gt;&lt;div&gt;1.里程下限(km) &amp;lt;= 历程总和and&lt;/div&gt;&lt;div&gt;2.里程上限(km) &amp;gt;= 历程总和and&lt;/div&gt;&lt;div&gt;3.时长下限(min)&amp;lt;= 晚点罚款时长and&lt;/div&gt;&lt;div&gt;4.时长上限(min) &amp;gt;= 晚点罚款时长&lt;/div&gt;&lt;/span&gt;" style="rounded=0;whiteSpace=wrap;html=1;fontSize=18;" parent="1" vertex="1">
          <mxGeometry x="-138.5" y="2551.5" width="300" height="97" as="geometry" />
        </mxCell>
        <mxCell id="x7FfRpxNMGuR6Kh4KBlE-215" value="&lt;span&gt;单价（单位：元/分钟）&lt;/span&gt;" style="rounded=0;whiteSpace=wrap;html=1;fontSize=18;" parent="1" vertex="1">
          <mxGeometry x="-87.75" y="2740" width="198.5" height="60" as="geometry" />
        </mxCell>
        <mxCell id="x7FfRpxNMGuR6Kh4KBlE-216" value="continue" style="rounded=0;whiteSpace=wrap;html=1;fontSize=18;" parent="1" vertex="1">
          <mxGeometry x="270" y="2575" width="85" height="50" as="geometry" />
        </mxCell>
        <mxCell id="x7FfRpxNMGuR6Kh4KBlE-222" value="&lt;span style=&quot;font-size: 29px;&quot;&gt;计算罚款金额&lt;/span&gt;" style="text;html=1;strokeColor=none;fillColor=none;align=center;verticalAlign=middle;whiteSpace=wrap;rounded=0;fontSize=29;fontStyle=3" parent="1" vertex="1">
          <mxGeometry x="-1210" y="1440" width="220" height="30" as="geometry" />
        </mxCell>
        <mxCell id="x7FfRpxNMGuR6Kh4KBlE-298" value="3" style="ellipse;shape=doubleEllipse;whiteSpace=wrap;html=1;aspect=fixed;fontSize=51;fontStyle=3" parent="1" vertex="1">
          <mxGeometry x="430" y="860" width="80" height="80" as="geometry" />
        </mxCell>
        <mxCell id="x7FfRpxNMGuR6Kh4KBlE-299" value="" style="group" parent="1" vertex="1" connectable="0">
          <mxGeometry x="-2220" y="860" width="590" height="830" as="geometry" />
        </mxCell>
        <mxCell id="x7FfRpxNMGuR6Kh4KBlE-224" value="" style="rounded=0;whiteSpace=wrap;html=1;fontSize=30;" parent="x7FfRpxNMGuR6Kh4KBlE-299" vertex="1">
          <mxGeometry width="590" height="830" as="geometry" />
        </mxCell>
        <mxCell id="x7FfRpxNMGuR6Kh4KBlE-17" value="" style="rounded=1;whiteSpace=wrap;html=1;dashed=1;fillColor=#f5f5f5;fontColor=#333333;strokeColor=#666666;" parent="x7FfRpxNMGuR6Kh4KBlE-299" vertex="1">
          <mxGeometry x="132.5" y="110" width="400" height="300" as="geometry" />
        </mxCell>
        <mxCell id="x7FfRpxNMGuR6Kh4KBlE-18" value="" style="edgeStyle=orthogonalEdgeStyle;rounded=0;orthogonalLoop=1;jettySize=auto;html=1;" parent="x7FfRpxNMGuR6Kh4KBlE-299" source="x7FfRpxNMGuR6Kh4KBlE-1" target="x7FfRpxNMGuR6Kh4KBlE-17" edge="1">
          <mxGeometry relative="1" as="geometry" />
        </mxCell>
        <mxCell id="x7FfRpxNMGuR6Kh4KBlE-1" value="获取未计算&lt;br&gt;晚点罚数据" style="rounded=0;whiteSpace=wrap;html=1;" parent="x7FfRpxNMGuR6Kh4KBlE-299" vertex="1">
          <mxGeometry x="272" y="10" width="121" height="50" as="geometry" />
        </mxCell>
        <mxCell id="x7FfRpxNMGuR6Kh4KBlE-2" value="根据批次号获取分段线路详情" style="whiteSpace=wrap;html=1;rounded=0;" parent="x7FfRpxNMGuR6Kh4KBlE-299" vertex="1">
          <mxGeometry x="172.5" y="130" width="120" height="60" as="geometry" />
        </mxCell>
        <mxCell id="x7FfRpxNMGuR6Kh4KBlE-12" value="过滤晚点时长为空的数据" style="whiteSpace=wrap;html=1;rounded=0;" parent="x7FfRpxNMGuR6Kh4KBlE-299" vertex="1">
          <mxGeometry x="172.5" y="340" width="120" height="60" as="geometry" />
        </mxCell>
        <mxCell id="x7FfRpxNMGuR6Kh4KBlE-25" value="" style="group" parent="x7FfRpxNMGuR6Kh4KBlE-299" vertex="1" connectable="0">
          <mxGeometry x="202.5" y="460" width="209" height="80" as="geometry" />
        </mxCell>
        <mxCell id="x7FfRpxNMGuR6Kh4KBlE-21" value="获取车辆类型" style="rounded=0;whiteSpace=wrap;html=1;" parent="x7FfRpxNMGuR6Kh4KBlE-25" vertex="1">
          <mxGeometry y="10" width="120" height="60" as="geometry" />
        </mxCell>
        <mxCell id="x7FfRpxNMGuR6Kh4KBlE-22" value="" style="shape=curlyBracket;whiteSpace=wrap;html=1;rounded=1;" parent="x7FfRpxNMGuR6Kh4KBlE-25" vertex="1">
          <mxGeometry x="119" width="20" height="80" as="geometry" />
        </mxCell>
        <mxCell id="x7FfRpxNMGuR6Kh4KBlE-23" value="0物流车 &lt;br&gt;1公司车 &lt;br&gt;2网点车 &lt;br&gt;9其他" style="text;html=1;strokeColor=none;fillColor=none;align=left;verticalAlign=middle;whiteSpace=wrap;rounded=0;" parent="x7FfRpxNMGuR6Kh4KBlE-25" vertex="1">
          <mxGeometry x="139" y="5" width="70" height="70" as="geometry" />
        </mxCell>
        <mxCell id="x7FfRpxNMGuR6Kh4KBlE-26" value="" style="group" parent="x7FfRpxNMGuR6Kh4KBlE-299" vertex="1" connectable="0">
          <mxGeometry x="172.5" y="230" width="350" height="70" as="geometry" />
        </mxCell>
        <mxCell id="x7FfRpxNMGuR6Kh4KBlE-5" value="获取缓行减免时常" style="whiteSpace=wrap;html=1;rounded=0;" parent="x7FfRpxNMGuR6Kh4KBlE-26" vertex="1">
          <mxGeometry width="120" height="60" as="geometry" />
        </mxCell>
        <mxCell id="x7FfRpxNMGuR6Kh4KBlE-8" value="" style="shape=curlyBracket;whiteSpace=wrap;html=1;rounded=1;" parent="x7FfRpxNMGuR6Kh4KBlE-26" vertex="1">
          <mxGeometry x="121" width="24.5" height="60" as="geometry" />
        </mxCell>
        <mxCell id="x7FfRpxNMGuR6Kh4KBlE-10" value="缓行减免条件&lt;br&gt;&lt;br&gt;1.存在晚点情况获取晚点减免时长；&lt;br&gt;2.公司车加班晚点时长 &amp;lt;= 30可减免；" style="text;html=1;strokeColor=none;fillColor=none;align=left;verticalAlign=top;whiteSpace=wrap;rounded=0;" parent="x7FfRpxNMGuR6Kh4KBlE-26" vertex="1">
          <mxGeometry x="145.5" width="204.5" height="70" as="geometry" />
        </mxCell>
        <mxCell id="x7FfRpxNMGuR6Kh4KBlE-7" style="edgeStyle=orthogonalEdgeStyle;rounded=0;orthogonalLoop=1;jettySize=auto;html=1;exitX=0.5;exitY=1;exitDx=0;exitDy=0;" parent="x7FfRpxNMGuR6Kh4KBlE-299" source="x7FfRpxNMGuR6Kh4KBlE-2" target="x7FfRpxNMGuR6Kh4KBlE-5" edge="1">
          <mxGeometry relative="1" as="geometry" />
        </mxCell>
        <mxCell id="x7FfRpxNMGuR6Kh4KBlE-15" value="" style="edgeStyle=orthogonalEdgeStyle;rounded=0;orthogonalLoop=1;jettySize=auto;html=1;" parent="x7FfRpxNMGuR6Kh4KBlE-299" source="x7FfRpxNMGuR6Kh4KBlE-5" target="x7FfRpxNMGuR6Kh4KBlE-12" edge="1">
          <mxGeometry relative="1" as="geometry" />
        </mxCell>
        <mxCell id="x7FfRpxNMGuR6Kh4KBlE-27" value="晚点时长合计&lt;br&gt;（空段剔除）" style="whiteSpace=wrap;html=1;rounded=0;" parent="x7FfRpxNMGuR6Kh4KBlE-299" vertex="1">
          <mxGeometry x="202.5" y="570" width="120" height="60" as="geometry" />
        </mxCell>
        <mxCell id="x7FfRpxNMGuR6Kh4KBlE-28" value="" style="edgeStyle=orthogonalEdgeStyle;rounded=0;orthogonalLoop=1;jettySize=auto;html=1;" parent="x7FfRpxNMGuR6Kh4KBlE-299" source="x7FfRpxNMGuR6Kh4KBlE-21" target="x7FfRpxNMGuR6Kh4KBlE-27" edge="1">
          <mxGeometry relative="1" as="geometry" />
        </mxCell>
        <mxCell id="x7FfRpxNMGuR6Kh4KBlE-29" value="缓行减免时长合计（空段剔除）" style="whiteSpace=wrap;html=1;rounded=0;" parent="x7FfRpxNMGuR6Kh4KBlE-299" vertex="1">
          <mxGeometry x="202.5" y="670" width="120" height="60" as="geometry" />
        </mxCell>
        <mxCell id="x7FfRpxNMGuR6Kh4KBlE-30" value="" style="edgeStyle=orthogonalEdgeStyle;rounded=0;orthogonalLoop=1;jettySize=auto;html=1;" parent="x7FfRpxNMGuR6Kh4KBlE-299" source="x7FfRpxNMGuR6Kh4KBlE-27" target="x7FfRpxNMGuR6Kh4KBlE-29" edge="1">
          <mxGeometry relative="1" as="geometry" />
        </mxCell>
        <mxCell id="x7FfRpxNMGuR6Kh4KBlE-31" value="晚点罚款时长 = 晚点时长合计 - 缓行减免时长合计 - 绕行时长" style="whiteSpace=wrap;html=1;rounded=0;" parent="x7FfRpxNMGuR6Kh4KBlE-299" vertex="1">
          <mxGeometry x="80" y="770" width="365" height="30" as="geometry" />
        </mxCell>
        <mxCell id="x7FfRpxNMGuR6Kh4KBlE-32" style="edgeStyle=orthogonalEdgeStyle;rounded=0;orthogonalLoop=1;jettySize=auto;html=1;exitX=0.5;exitY=1;exitDx=0;exitDy=0;entryX=0.5;entryY=0;entryDx=0;entryDy=0;" parent="x7FfRpxNMGuR6Kh4KBlE-299" source="x7FfRpxNMGuR6Kh4KBlE-29" target="x7FfRpxNMGuR6Kh4KBlE-31" edge="1">
          <mxGeometry relative="1" as="geometry" />
        </mxCell>
        <mxCell id="x7FfRpxNMGuR6Kh4KBlE-225" value="1" style="ellipse;shape=doubleEllipse;whiteSpace=wrap;html=1;aspect=fixed;fontSize=51;fontStyle=3" parent="x7FfRpxNMGuR6Kh4KBlE-299" vertex="1">
          <mxGeometry x="510" width="80" height="80" as="geometry" />
        </mxCell>
        <mxCell id="x7FfRpxNMGuR6Kh4KBlE-373" value="" style="group" parent="1" vertex="1" connectable="0">
          <mxGeometry x="560" y="1340" width="895" height="1110" as="geometry" />
        </mxCell>
        <mxCell id="x7FfRpxNMGuR6Kh4KBlE-300" value="" style="rounded=0;whiteSpace=wrap;html=1;fontSize=51;" parent="x7FfRpxNMGuR6Kh4KBlE-373" vertex="1">
          <mxGeometry width="895" height="1110" as="geometry" />
        </mxCell>
        <mxCell id="x7FfRpxNMGuR6Kh4KBlE-160" value="" style="rounded=0;whiteSpace=wrap;html=1;fontSize=20;" parent="x7FfRpxNMGuR6Kh4KBlE-373" vertex="1">
          <mxGeometry x="40" y="620" width="750" height="260" as="geometry" />
        </mxCell>
        <mxCell id="x7FfRpxNMGuR6Kh4KBlE-152" value="" style="group" parent="x7FfRpxNMGuR6Kh4KBlE-373" vertex="1" connectable="0">
          <mxGeometry x="50" y="10" width="702.5" height="590" as="geometry" />
        </mxCell>
        <mxCell id="x7FfRpxNMGuR6Kh4KBlE-150" value="" style="rounded=0;whiteSpace=wrap;html=1;fontSize=17;" parent="x7FfRpxNMGuR6Kh4KBlE-152" vertex="1">
          <mxGeometry width="690" height="590" as="geometry" />
        </mxCell>
        <mxCell id="x7FfRpxNMGuR6Kh4KBlE-136" value="&lt;span style=&quot;color: rgb(0 , 0 , 0) ; font-family: &amp;#34;helvetica&amp;#34; ; font-size: 17px ; font-style: normal ; font-weight: 400 ; letter-spacing: normal ; text-align: center ; text-indent: 0px ; text-transform: none ; word-spacing: 0px ; background-color: rgb(248 , 249 , 250) ; display: inline ; float: none&quot;&gt;罚款金额 &amp;gt; 0&lt;/span&gt;" style="rhombus;whiteSpace=wrap;html=1;fontSize=17;" parent="x7FfRpxNMGuR6Kh4KBlE-152" vertex="1">
          <mxGeometry x="70" y="180" width="180" height="80" as="geometry" />
        </mxCell>
        <mxCell id="x7FfRpxNMGuR6Kh4KBlE-138" value="&lt;div&gt;//根据晚点罚款金额，赋值 申诉状态 和 处理状态&lt;/div&gt;&lt;div&gt;//注意：绕行时长通知过来会触发罚款重算，要保留原申诉状态&lt;/div&gt;&lt;div&gt;//①罚款金额 &amp;gt;0, 原申诉不为null,保持原申诉状态和处理状态；为null，设为可申诉状态&lt;/div&gt;&lt;div&gt;//②罚款金额==0，不论原申诉状态如何，直接设为无罚款状态&lt;/div&gt;" style="text;html=1;strokeColor=none;fillColor=none;align=left;verticalAlign=middle;whiteSpace=wrap;rounded=0;fontSize=17;" parent="x7FfRpxNMGuR6Kh4KBlE-152" vertex="1">
          <mxGeometry x="2.5" y="49" width="700" height="110" as="geometry" />
        </mxCell>
        <mxCell id="x7FfRpxNMGuR6Kh4KBlE-140" value="&lt;font face=&quot;helvetica&quot;&gt;原申述状态 == null &lt;br&gt;&amp;amp;&amp;amp; !=0(无罚款)&lt;/font&gt;" style="rhombus;whiteSpace=wrap;html=1;fontSize=17;" parent="x7FfRpxNMGuR6Kh4KBlE-152" vertex="1">
          <mxGeometry x="55" y="320" width="210" height="120" as="geometry" />
        </mxCell>
        <mxCell id="x7FfRpxNMGuR6Kh4KBlE-139" value="Y" style="edgeStyle=orthogonalEdgeStyle;rounded=0;orthogonalLoop=1;jettySize=auto;html=1;exitX=0.5;exitY=1;exitDx=0;exitDy=0;fontSize=17;entryX=0.5;entryY=0;entryDx=0;entryDy=0;" parent="x7FfRpxNMGuR6Kh4KBlE-152" source="x7FfRpxNMGuR6Kh4KBlE-136" target="x7FfRpxNMGuR6Kh4KBlE-140" edge="1">
          <mxGeometry relative="1" as="geometry">
            <mxPoint x="159.38461538461524" y="320" as="targetPoint" />
          </mxGeometry>
        </mxCell>
        <mxCell id="x7FfRpxNMGuR6Kh4KBlE-142" value="保持原申述状态&lt;br&gt;保持原处理状态" style="rounded=0;whiteSpace=wrap;html=1;fontSize=17;" parent="x7FfRpxNMGuR6Kh4KBlE-152" vertex="1">
          <mxGeometry x="322" y="350" width="150" height="60" as="geometry" />
        </mxCell>
        <mxCell id="x7FfRpxNMGuR6Kh4KBlE-141" value="Y" style="edgeStyle=orthogonalEdgeStyle;rounded=0;orthogonalLoop=1;jettySize=auto;html=1;exitX=1;exitY=0.5;exitDx=0;exitDy=0;fontSize=17;entryX=0;entryY=0.5;entryDx=0;entryDy=0;" parent="x7FfRpxNMGuR6Kh4KBlE-152" source="x7FfRpxNMGuR6Kh4KBlE-140" target="x7FfRpxNMGuR6Kh4KBlE-142" edge="1">
          <mxGeometry relative="1" as="geometry">
            <mxPoint x="370" y="380.6153846153843" as="targetPoint" />
          </mxGeometry>
        </mxCell>
        <mxCell id="x7FfRpxNMGuR6Kh4KBlE-144" value="申述状态：1-可申述&lt;br&gt;处理状态：0-未开始" style="rounded=0;whiteSpace=wrap;html=1;fontSize=17;" parent="x7FfRpxNMGuR6Kh4KBlE-152" vertex="1">
          <mxGeometry x="52.5" y="510" width="215" height="60" as="geometry" />
        </mxCell>
        <mxCell id="x7FfRpxNMGuR6Kh4KBlE-143" value="N" style="edgeStyle=orthogonalEdgeStyle;rounded=0;orthogonalLoop=1;jettySize=auto;html=1;exitX=0.5;exitY=1;exitDx=0;exitDy=0;fontSize=17;entryX=0.5;entryY=0;entryDx=0;entryDy=0;" parent="x7FfRpxNMGuR6Kh4KBlE-152" source="x7FfRpxNMGuR6Kh4KBlE-140" target="x7FfRpxNMGuR6Kh4KBlE-144" edge="1">
          <mxGeometry relative="1" as="geometry">
            <mxPoint x="159.38461538461524" y="540" as="targetPoint" />
          </mxGeometry>
        </mxCell>
        <mxCell id="x7FfRpxNMGuR6Kh4KBlE-148" value="申述状态：0-无罚款&lt;br&gt;处理状态：0-未开始" style="rounded=0;whiteSpace=wrap;html=1;fontSize=17;" parent="x7FfRpxNMGuR6Kh4KBlE-152" vertex="1">
          <mxGeometry x="322" y="190" width="198" height="60" as="geometry" />
        </mxCell>
        <mxCell id="x7FfRpxNMGuR6Kh4KBlE-146" value="N" style="edgeStyle=orthogonalEdgeStyle;rounded=0;orthogonalLoop=1;jettySize=auto;html=1;exitX=1;exitY=0.5;exitDx=0;exitDy=0;fontSize=17;entryX=0;entryY=0.5;entryDx=0;entryDy=0;" parent="x7FfRpxNMGuR6Kh4KBlE-152" source="x7FfRpxNMGuR6Kh4KBlE-136" target="x7FfRpxNMGuR6Kh4KBlE-148" edge="1">
          <mxGeometry relative="1" as="geometry">
            <mxPoint x="350" y="221" as="targetPoint" />
          </mxGeometry>
        </mxCell>
        <mxCell id="x7FfRpxNMGuR6Kh4KBlE-151" value="设置申诉状态" style="text;html=1;strokeColor=none;fillColor=none;align=center;verticalAlign=middle;whiteSpace=wrap;rounded=0;fontSize=20;fontStyle=3" parent="x7FfRpxNMGuR6Kh4KBlE-152" vertex="1">
          <mxGeometry x="2.5" width="150" height="40" as="geometry" />
        </mxCell>
        <mxCell id="x7FfRpxNMGuR6Kh4KBlE-154" value="实际罚款金额 != null" style="rhombus;whiteSpace=wrap;html=1;fontSize=20;" parent="x7FfRpxNMGuR6Kh4KBlE-373" vertex="1">
          <mxGeometry x="210" y="640" width="263" height="100" as="geometry" />
        </mxCell>
        <mxCell id="x7FfRpxNMGuR6Kh4KBlE-156" value="实际罚款金额：null" style="rounded=0;whiteSpace=wrap;html=1;fontSize=20;" parent="x7FfRpxNMGuR6Kh4KBlE-373" vertex="1">
          <mxGeometry x="560" y="655" width="200" height="70" as="geometry" />
        </mxCell>
        <mxCell id="x7FfRpxNMGuR6Kh4KBlE-155" value="N" style="edgeStyle=orthogonalEdgeStyle;rounded=0;orthogonalLoop=1;jettySize=auto;html=1;exitX=1;exitY=0.5;exitDx=0;exitDy=0;fontSize=20;entryX=0;entryY=0.5;entryDx=0;entryDy=0;" parent="x7FfRpxNMGuR6Kh4KBlE-373" source="x7FfRpxNMGuR6Kh4KBlE-154" target="x7FfRpxNMGuR6Kh4KBlE-156" edge="1">
          <mxGeometry relative="1" as="geometry">
            <mxPoint x="540" y="689.666666666667" as="targetPoint" />
          </mxGeometry>
        </mxCell>
        <mxCell id="x7FfRpxNMGuR6Kh4KBlE-158" value="实际罚款金额 = 晚点罚款金额 - 调整金额 ：&lt;br&gt;原实际罚款金额 &amp;lt;= 本次晚点罚款金额 ？ 原实际罚款金额 ： 本次晚点罚款金额" style="rounded=0;whiteSpace=wrap;html=1;fontSize=20;" parent="x7FfRpxNMGuR6Kh4KBlE-373" vertex="1">
          <mxGeometry x="45.11999999999989" y="800" width="724.88" height="60" as="geometry" />
        </mxCell>
        <mxCell id="x7FfRpxNMGuR6Kh4KBlE-157" value="Y" style="edgeStyle=orthogonalEdgeStyle;rounded=0;orthogonalLoop=1;jettySize=auto;html=1;exitX=0.5;exitY=1;exitDx=0;exitDy=0;fontSize=20;entryX=0.5;entryY=0;entryDx=0;entryDy=0;" parent="x7FfRpxNMGuR6Kh4KBlE-373" source="x7FfRpxNMGuR6Kh4KBlE-154" target="x7FfRpxNMGuR6Kh4KBlE-158" edge="1">
          <mxGeometry relative="1" as="geometry">
            <mxPoint x="342" y="840" as="targetPoint" />
          </mxGeometry>
        </mxCell>
        <mxCell id="x7FfRpxNMGuR6Kh4KBlE-162" value="晚点罚款已计算标识" style="rounded=0;whiteSpace=wrap;html=1;fontSize=20;" parent="x7FfRpxNMGuR6Kh4KBlE-373" vertex="1">
          <mxGeometry x="322.5" y="930" width="185" height="60" as="geometry" />
        </mxCell>
        <mxCell id="x7FfRpxNMGuR6Kh4KBlE-161" style="edgeStyle=orthogonalEdgeStyle;rounded=0;orthogonalLoop=1;jettySize=auto;html=1;exitX=0.5;exitY=1;exitDx=0;exitDy=0;fontSize=20;entryX=0.5;entryY=0;entryDx=0;entryDy=0;" parent="x7FfRpxNMGuR6Kh4KBlE-373" source="x7FfRpxNMGuR6Kh4KBlE-160" target="x7FfRpxNMGuR6Kh4KBlE-162" edge="1">
          <mxGeometry relative="1" as="geometry">
            <mxPoint x="415.33333333333394" y="950" as="targetPoint" />
          </mxGeometry>
        </mxCell>
        <mxCell id="x7FfRpxNMGuR6Kh4KBlE-163" value="更新晚点罚款" style="rounded=0;whiteSpace=wrap;html=1;fontSize=20;" parent="x7FfRpxNMGuR6Kh4KBlE-373" vertex="1">
          <mxGeometry x="317.5" y="1020" width="195" height="60" as="geometry" />
        </mxCell>
        <mxCell id="x7FfRpxNMGuR6Kh4KBlE-164" style="edgeStyle=orthogonalEdgeStyle;rounded=0;orthogonalLoop=1;jettySize=auto;html=1;exitX=0.5;exitY=1;exitDx=0;exitDy=0;entryX=0.5;entryY=0;entryDx=0;entryDy=0;fontSize=20;" parent="x7FfRpxNMGuR6Kh4KBlE-373" source="x7FfRpxNMGuR6Kh4KBlE-162" target="x7FfRpxNMGuR6Kh4KBlE-163" edge="1">
          <mxGeometry relative="1" as="geometry" />
        </mxCell>
        <mxCell id="x7FfRpxNMGuR6Kh4KBlE-372" value="4" style="ellipse;shape=doubleEllipse;whiteSpace=wrap;html=1;aspect=fixed;fontSize=51;fontStyle=3" parent="x7FfRpxNMGuR6Kh4KBlE-373" vertex="1">
          <mxGeometry x="810" width="80" height="80" as="geometry" />
        </mxCell>
      </root>
    </mxGraphModel>
  </diagram>
</mxfile>
